<svg width="1014" height="1014" viewBox="0 0 1014 1014" fill="none" xmlns="http://www.w3.org/2000/svg">
<rect width="1014" height="1014" fill="black"/>
<path d="M339.934 159.228C289.174 167.957 240.992 180.57 196.693 196.693C180.57 240.992 167.957 289.205 159.228 339.934C149.97 393.118 145 449.346 145 507.5C145 565.654 149.97 621.882 159.228 675.066C167.957 725.826 180.57 774.008 196.693 818.307C240.992 834.43 289.205 847.043 339.934 855.772C393.087 865.03 449.346 870 507.5 870C565.654 870 621.882 865.03 675.066 855.772C725.826 847.043 774.008 834.43 818.307 818.307C834.43 774.008 847.043 725.795 855.772 675.066C865.03 621.913 870 565.654 870 507.5C870 449.346 865.03 393.118 855.772 339.934C847.043 289.174 834.43 240.992 818.307 196.693C774.008 180.57 725.795 167.957 675.066 159.228C621.882 149.97 565.623 145 507.5 145C449.377 145 393.118 149.97 339.934 159.228ZM749.156 507.5C749.156 508.277 749.156 509.053 749.156 509.83C748.846 641.298 641.298 748.846 509.83 749.156C509.053 749.156 508.277 749.156 507.5 749.156C506.723 749.156 505.947 749.156 505.17 749.156C373.702 748.846 266.154 641.298 265.844 509.83C265.844 509.053 265.844 508.277 265.844 507.5C265.844 506.723 265.844 505.947 265.844 505.17C266.154 373.702 373.702 266.154 505.17 265.844C505.947 265.844 506.723 265.844 507.5 265.844C508.277 265.844 509.053 265.844 509.83 265.844C641.298 266.154 748.846 373.702 749.156 505.17C749.156 505.947 749.156 506.723 749.156 507.5Z" fill="white"/>
</svg>
